Coordinates
version=1
nRows=36
nColumns=32
inDegrees=no

Units are S.I. units (second, meters, Newtons, ...)
If the header above contains a line with 'inDegrees', this indicates whether rotational values are in degrees (yes) or radians (no).

endheader
time	pelvis_tilt	pelvis_list	pelvis_rotation	pelvis_tx	pelvis_ty	pelvis_tz	hip_flexion_r	hip_adduction_r	hip_rotation_r	knee_angle_r	ankle_angle_r	subtalar_angle_r	mtp_angle_r	hip_flexion_l	hip_adduction_l	hip_rotation_l	knee_angle_l	ankle_angle_l	subtalar_angle_l	mtp_angle_l	lumbar_extension	lumbar_bending	lumbar_rotation	arm_flex_r	arm_add_r	arm_rot_r	elbow_flex_r	arm_flex_l	arm_add_l	arm_rot_l	elbow_flex_l
0	-0.138931	0.045169	0.0268491	0.884816	1.01061	-0.31059	-0.378807	-0.0729494	-0.209875	0.829356	-0.715893	-0.500784	0.0216344	0.892742	0.00564801	-0.307281	0.343448	-0.14992	0.287632	0.0519107	-0.0374879	-0.10509	0.173644	-0.368526	-0.385308	0.0977834	2.37925	-1.0627	-0.373837	-0.0261168	2.2681
0.005	-0.138295	0.0383326	0.0318699	0.884211	1.01039	-0.310698	-0.353373	-0.0660817	-0.1985	0.921969	-0.722337	-0.512491	0.0217262	0.877658	0.00531893	-0.362334	0.316817	-0.157377	0.333485	0.0519164	-0.0419829	-0.0996318	0.165041	-0.380628	-0.383646	0.0991036	2.36067	-1.04631	-0.367489	-0.0251929	2.26088
0.01	-0.136895	0.0327707	0.0382077	0.883464	1.0102	-0.310933	-0.327398	-0.0607733	-0.190399	1.01337	-0.722705	-0.520947	0.021818	0.862184	0.00636441	-0.408616	0.296468	-0.167204	0.3664	0.0519222	-0.0479748	-0.0953838	0.154408	-0.392796	-0.380795	0.0998667	2.33944	-1.02749	-0.362229	-0.0225881	2.25282
0.015	-0.134694	0.0284726	0.045835	0.882586	1.01004	-0.311307	-0.300932	-0.0570233	-0.185519	1.10351	-0.717155	-0.526288	0.0219098	0.84625	0.00874086	-0.446139	0.282319	-0.179315	0.386693	0.0519279	-0.0554923	-0.0923285	0.141769	-0.405021	-0.376769	0.100077	2.31554	-1.00626	-0.358049	-0.0183017	2.24391
0.02	-0.131589	0.0254048	0.0546586	0.881594	1.00993	-0.311815	-0.274115	-0.0548243	-0.183682	1.19228	-0.706172	-0.528894	0.0220016	0.829652	0.0123123	-0.47497	0.274137	-0.193439	0.395334	0.0519337	-0.0646179	-0.090413	0.127202	-0.417269	-0.371603	0.0997556	2.289	-0.982665	-0.35493	-0.0123377	2.23414
0.025	-0.127406	0.0235118	0.0644893	0.880516	1.00989	-0.312437	-0.247178	-0.0541653	-0.184535	1.27948	-0.690618	-0.52941	0.0220934	0.812038	0.0168298	-0.49531	0.271508	-0.209072	0.394091	0.0519394	-0.0754874	-0.0895487	0.110862	-0.429482	-0.365375	0.0989526	2.25985	-0.95683	-0.352822	-0.00472079	2.22349
0.03	-0.121934	0.0227289	0.075033	0.879387	1.00992	-0.313138	-0.220396	-0.0550434	-0.187543	1.36485	-0.671661	-0.528664	0.0221852	0.792954	0.0219513	-0.507545	0.273872	-0.225503	0.38539	0.0519452	-0.0882599	-0.0896292	0.0929726	-0.441571	-0.358212	0.0977667	2.22815	-0.928923	-0.35163	0.00448131	2.21192
0.035	-0.11497	0.0229932	0.0859109	0.878248	1.01003	-0.31388	-0.19401	-0.0574764	-0.192018	1.44814	-0.650577	-0.527516	0.022277	0.771938	0.0272849	-0.512284	0.280605	-0.241854	0.371978	0.0519509	-0.103067	-0.0905536	0.0738068	-0.45343	-0.350288	0.0963423	2.19398	-0.899173	-0.351215	0.0151375	2.19938
0.04	-0.106392	0.0242476	0.0967036	0.87714	1.01024	-0.314621	-0.16814	-0.061504	-0.197193	1.5291	-0.628527	-0.526686	0.0223688	0.748648	0.0324421	-0.510345	0.291139	-0.257045	0.356531	0.0519567	-0.119947	-0.0922397	0.0536497	-0.464943	-0.341819	0.0948502	2.15746	-0.867846	-0.351396	0.0270468	2.18576
0.045	-0.0962143	0.0264371	0.107002	0.876098	1.01051	-0.315324	-0.142705	-0.0671756	-0.202288	1.60756	-0.606347	-0.526635	0.0224607	0.722963	0.0370931	-0.502705	0.305047	-0.26969	0.341357	0.0519624	-0.138788	-0.0946294	0.0327683	-0.476017	-0.333045	0.0934595	2.11878	-0.835215	-0.351973	0.039946	2.17096
0.05	-0.0846359	0.0294995	0.116452	0.875148	1.01083	-0.315963	-0.117367	-0.0745246	-0.206573	1.68339	-0.584437	-0.527487	0.0225525	0.695037	0.0410115	-0.490434	0.322097	-0.277956	0.328229	0.0519682	-0.159278	-0.0976844	0.0113905	-0.486605	-0.324212	0.0923091	2.07818	-0.801537	-0.352752	0.0535244	2.15485
0.055	-0.0720479	0.0333524	0.124782	0.874304	1.01112	-0.316526	-0.0915194	-0.083534	-0.2094	1.75652	-0.562763	-0.529026	0.0226443	0.665292	0.0440961	-0.47462	0.34225	-0.279517	0.318331	0.0519739	-0.180895	-0.101371	-0.0103011	-0.496729	-0.315557	0.0914882	2.03598	-0.767044	-0.353566	0.0674414	2.13733
0.06	-0.0590042	0.0378768	0.131816	0.873575	1.0113	-0.317012	-0.0643301	-0.0941006	-0.210223	1.82688	-0.540954	-0.530769	0.0227361	0.634367	0.0463654	-0.456331	0.365613	-0.271699	0.312247	0.0519796	-0.20293	-0.105639	-0.0321753	-0.506489	-0.307298	0.0910355	1.9926	-0.73194	-0.354283	0.0813381	2.11835
0.065	-0.0461518	0.0429037	0.137476	0.872962	1.01126	-0.317431	-0.0348311	-0.106012	-0.208613	1.89439	-0.518475	-0.532077	0.0228279	0.603011	0.0479283	-0.436589	0.392346	-0.251883	0.309971	0.0519853	-0.224566	-0.110391	-0.0541611	-0.516043	-0.299653	0.0909596	1.94855	-0.696431	-0.354801	0.0948338	2.098
0.07	-0.0341296	0.0482183	0.141776	0.872459	1.01089	-0.317803	-0.00206033	-0.118946	-0.204266	1.95891	-0.494798	-0.532265	0.0229198	0.571936	0.0489526	-0.416369	0.422502	-0.218109	0.310923	0.051991	-0.244995	-0.115481	-0.0762552	-0.525578	-0.292844	0.0912663	1.90442	-0.66075	-0.35504	0.107518	2.07655
0.075	-0.0234625	0.0535837	0.144808	0.872041	1.01013	-0.318143	0.0347869	-0.132502	-0.197003	2.02019	-0.46953	-0.530682	0.0230116	0.541664	0.049648	-0.396558	0.455848	-0.169734	0.313961	0.0519966	-0.263539	-0.12071	-0.0985263	-0.535267	-0.287114	0.0919738	1.86088	-0.625185	-0.354925	0.118948	2.05453
0.08	-0.0144933	0.0587738	0.146745	0.871675	1.00893	-0.318465	0.076243	-0.146246	-0.186792	2.07785	-0.44249	-0.526759	0.0231035	0.512435	0.0502683	-0.377853	0.49173	-0.107899	0.317426	0.0520023	-0.279749	-0.125843	-0.121125	-0.545246	-0.282717	0.0931072	1.81863	-0.590083	-0.354386	0.128666	2.03275
0.085	-0.00736577	0.0636064	0.147864	0.871316	1.0073	-0.318785	0.122519	-0.159796	-0.173787	2.13141	-0.413731	-0.520031	0.0231953	0.484221	0.0511147	-0.360607	0.529073	-0.0355577	0.319334	0.0520079	-0.293436	-0.13063	-0.144296	-0.555594	-0.279895	0.0946728	1.77837	-0.555845	-0.353358	0.136228	2.01228
0.09	-0.00205481	0.0679471	0.148554	0.870924	1.00528	-0.319119	0.173515	-0.172877	-0.158376	2.18027	-0.38351	-0.510152	0.0232872	0.456793	0.052488	-0.344736	0.566519	0.0430016	0.317846	0.0520136	-0.304639	-0.134814	-0.168369	-0.566335	-0.278839	0.096629	1.74075	-0.522901	-0.351793	0.141245	1.99435
0.095	0.00158333	0.0716729	0.149281	0.870469	1.00295	-0.319489	0.228873	-0.185303	-0.141199	2.2238	-0.352258	-0.496932	0.023379	0.429797	0.0545657	-0.329762	0.602622	0.12302	0.311833	0.0520192	-0.313551	-0.138098	-0.193694	-0.57746	-0.279658	0.0988608	1.70633	-0.491685	-0.349679	0.143439	1.9802
0.1	0.00374386	0.0746086	0.150518	0.869946	1.0004	-0.319913	0.288055	-0.196888	-0.123117	2.26132	-0.32053	-0.480397	0.0234709	0.402822	0.0572653	-0.314984	0.636033	0.200132	0.301211	0.0520248	-0.320404	-0.140118	-0.220514	-0.588986	-0.282357	0.101162	1.67555	-0.462594	-0.347037	0.142705	1.97097
0.105	0.00461523	0.0764932	0.152616	0.869365	0.997741	-0.320406	0.350424	-0.207348	-0.105109	2.29219	-0.288966	-0.460851	0.0235628	0.37545	0.0601736	-0.299712	0.66562	0.270923	0.286917	0.0520305	-0.325366	-0.140455	-0.248834	-0.600993	-0.286831	0.10324	1.64872	-0.435953	-0.343922	0.139154	1.96746
0.11	0.0043466	0.0770033	0.155679	0.868759	0.99508	-0.320971	0.415308	-0.216259	-0.0881412	2.31584	-0.258239	-0.438915	0.0236546	0.347295	0.0625786	-0.283479	0.690538	0.333113	0.270563	0.0520361	-0.328467	-0.138716	-0.278302	-0.613659	-0.292863	0.104736	1.62603	-0.411986	-0.340406	0.133124	1.9701
0.115	0.0030429	0.0758097	0.159481	0.868185	0.992503	-0.321594	0.482024	-0.223049	-0.0730288	2.33182	-0.22899	-0.415516	0.0237465	0.318021	0.06359	-0.266202	0.710233	0.385473	0.253988	0.0520417	-0.329601	-0.134615	-0.308167	-0.62726	-0.300143	0.105259	1.60754	-0.3908	-0.336553	0.125151	1.97886
0.12	0.000783684	0.0726435	0.163451	0.867711	0.990086	-0.322238	0.549886	-0.227026	-0.0603356	2.33982	-0.201791	-0.391833	0.0238384	0.287316	0.0623108	-0.248254	0.724397	0.427576	0.238887	0.0520472	-0.328573	-0.128042	-0.337311	-0.642148	-0.308292	0.104429	1.5932	-0.372375	-0.332413	0.115923	1.99328
0.125	-0.00233983	0.0673657	0.166738	0.86742	0.987888	-0.322843	0.618174	-0.227469	-0.0503361	2.33974	-0.17711	-0.369213	0.0239303	0.254868	0.0580206	-0.230479	0.732877	0.459451	0.226585	0.0520528	-0.325206	-0.119091	-0.364377	-0.658706	-0.316891	0.101917	1.5829	-0.356571	-0.328014	0.106194	2.01264
0.13	-0.00618896	0.0600257	0.168348	0.86739	0.985959	-0.323334	0.686101	-0.223743	-0.0430362	2.33166	-0.15532	-0.349068	0.0240223	0.220328	0.0503313	-0.214096	0.735606	0.481245	0.217919	0.0520584	-0.319446	-0.108064	-0.387953	-0.677277	-0.325512	0.0974908	1.57644	-0.343147	-0.323372	0.0966931	2.03605
0.135	-0.0105586	0.0508532	0.167308	0.867694	0.984342	-0.323631	0.752794	-0.215427	-0.0382374	2.31581	-0.136704	-0.332757	0.0241142	0.183318	0.0392952	-0.200552	0.732538	0.492944	0.213195	0.0520639	-0.311439	-0.0954413	-0.406785	-0.698101	-0.33375	0.0910525	1.57362	-0.331792	-0.318507	0.088033	2.06266
0.14	-0.0151865	0.040253	0.162832	0.868382	0.98308	-0.32366	0.817317	-0.20242	-0.0356166	2.29255	-0.12148	-0.321475	0.0242061	0.143483	0.0254268	-0.191315	0.723638	0.494215	0.212198	0.0520694	-0.301543	-0.0818195	-0.419967	-0.721264	-0.34126	0.0826502	1.57416	-0.322175	-0.313451	0.0806507	2.09172
0.145	-0.0197939	0.0287632	0.154448	0.869473	0.98221	-0.323366	0.878725	-0.184996	-0.0347939	2.26233	-0.109782	-0.316131	0.024298	0.100574	0.00965352	-0.187669	0.708881	0.484381	0.214269	0.0520749	-0.290273	-0.0678365	-0.427078	-0.746668	-0.347785	0.0724725	1.57778	-0.313985	-0.308255	0.074775	2.12262
0.15	-0.0241292	0.0169864	0.14207	0.870948	0.981765	-0.32273	0.936134	-0.163802	-0.0353932	2.22564	-0.101628	-0.317276	0.02439	0.0545291	-0.00680982	-0.19054	0.68829	0.462509	0.218425	0.0520804	-0.278211	-0.0540961	-0.428233	-0.774035	-0.353184	0.0608323	1.58417	-0.306968	-0.302987	0.070434	2.15494
0.155	-0.0279997	0.00550683	0.125999	0.872755	0.981762	-0.32177	0.988764	-0.139782	-0.0370908	2.18297	-0.0968871	-0.325049	0.024482	0.0055292	-0.0226364	-0.200349	0.661983	0.427604	0.223483	0.0520859	-0.26592	-0.0410933	-0.424033	-0.802943	-0.357442	0.0481396	1.59301	-0.300943	-0.297722	0.0674953	2.18836
0.16	-0.0312847	-0.00519348	0.106851	0.874819	0.982203	-0.320534	1.03597	-0.11404	-0.0396481	2.13478	-0.0952665	-0.339165	0.0245739	-0.0459764	-0.0365898	-0.216942	0.630247	0.378863	0.22818	0.0520914	-0.25388	-0.0291534	-0.415443	-0.832874	-0.360654	0.0348577	1.60396	-0.295793	-0.292541	0.0657316	2.22263
0.165	-0.033932	-0.014791	0.0854506	0.877057	0.983068	-0.319087	1.07729	-0.0876948	-0.0429154	2.08145	-0.0963371	-0.358928	0.0246659	-0.0992856	-0.0477063	-0.239592	0.59362	0.315977	0.231326	0.0520968	-0.242451	-0.0184072	-0.403616	-0.863271	-0.362995	0.0214526	1.61669	-0.291448	-0.287523	0.0648888	2.2575
0.17	-0.0359447	-0.0231301	0.0627091	0.879386	0.984317	-0.317503	1.11238	-0.0617539	-0.046804	2.0233	-0.099565	-0.383244	0.0247579	-0.153481	-0.0554069	-0.267044	0.552972	0.23943	0.231945	0.0521022	-0.231863	-0.00881615	-0.389735	-0.893578	-0.364672	0.0083515	1.63087	-0.28786	-0.28275	0.0647421	2.29266
0.175	-0.037366	-0.0301882	0.0395294	0.881734	0.985885	-0.315854	1.1411	-0.0370543	-0.0512398	1.96057	-0.104334	-0.410623	0.0248499	-0.207484	-0.059509	-0.297532	0.50957	0.15073	0.22932	0.0521076	-0.222227	-0.000236493	-0.374887	-0.923281	-0.365883	-0.00408418	1.64617	-0.284994	-0.278308	0.0651333	2.32778
